<svg width="500" height="935" viewBox="0 0 500 935" fill="none" xmlns="http://www.w3.org/2000/svg">
<path opacity="0.1" d="M247.436 402.98C244.246 407.283 237.594 414.213 232.715 418.337C231.589 414.93 230.463 413.496 230.463 412.061C230.463 401.125 229.9 390.188 231.401 379.431C235.718 350.206 237.594 321.341 229.149 292.475C224.457 276.518 217.889 261.458 207.942 247.832C202.499 240.302 196.869 240.302 191.051 247.474C188.799 250.342 187.11 253.569 185.421 256.797C165.715 293.192 158.209 331.56 166.091 372.259C171.158 398.794 181.855 422.998 197.62 445.23C204.188 454.553 206.628 464.414 201.749 475.171C194.054 491.845 186.359 508.519 178.29 525.014C176.037 529.496 172.096 533.082 168.906 537.026C167.968 536.847 167.217 536.847 166.278 536.668C164.026 531.647 161.211 526.627 159.898 521.428C150.139 482.522 135.875 445.23 114.668 410.806C108.1 400.228 98.3408 391.443 89.7078 381.941C86.142 377.996 82.7639 378.893 80.8872 383.734C76.1953 395.387 69.0637 406.862 67.5624 418.874C64.7473 442.003 64.7473 465.49 64.1842 488.797C63.8089 503.858 68.3131 517.842 77.6967 529.855C93.8366 550.652 113.73 567.505 139.066 578.084C150.889 582.924 153.892 588.662 151.077 600.495C147.887 613.941 144.884 627.389 141.693 640.656C137.377 658.943 133.248 677.052 128.556 695.16C127.805 697.849 124.427 700.001 122.363 702.511C119.923 700.359 116.357 698.746 115.231 696.056C112.416 689.96 110.352 683.327 108.663 676.872C95.901 625.416 66.9993 583.462 24.9605 549.576C17.0783 543.301 11.2604 544.556 9.38366 554.059C6.75624 566.788 5.06718 579.697 3.00277 592.606C1.87673 598.522 0.938366 604.439 0 610.356L0 625.237C0.56302 627.389 1.50139 629.361 1.87673 631.333C8.63297 679.024 33.4058 714.882 78.0721 737.472C86.5174 741.775 95.7133 744.823 104.534 748.409C115.044 752.532 119.36 760.063 118.797 770.82C117.483 793.59 116.545 816.539 115.794 839.488C115.231 861.002 114.856 882.517 114.668 904.032C114.481 919.271 123.301 928.594 137.752 933.794C147.886 937.379 155.581 932.001 155.018 921.602C154.455 912.1 153.704 902.418 153.517 892.736C152.954 857.596 152.203 822.634 152.203 787.494C152.203 773.868 156.707 770.999 170.783 772.971C187.673 775.302 204.752 777.095 221.079 771.716C236.656 766.517 251.857 759.345 266.496 751.995C302.342 734.066 328.428 707.71 340.815 670.239C342.128 666.474 342.879 662.709 344.193 657.868C336.498 656.792 329.93 655.537 323.173 655.358C299.714 654.82 277.756 661.633 257.863 672.39C230.463 687.092 204.376 703.945 177.539 719.902C174.161 721.874 170.595 723.488 167.029 725.101C161.774 727.432 158.959 725.281 158.396 720.081L158.381 719.907C158.199 717.823 158.031 715.904 158.396 713.985C161.774 695.877 165.152 677.769 168.906 659.661C172.096 644.421 176.413 641.373 192.928 641.015C203.625 640.835 214.698 641.194 225.208 639.222C276.443 630.078 316.229 604.08 344.005 561.948C350.761 551.549 355.828 539.895 360.333 528.42C364.461 517.842 359.394 511.746 347.571 512.105C342.316 512.284 336.686 512.822 331.619 514.256C279.07 529.137 233.278 554.417 197.995 595.475C195.931 597.805 192.365 598.881 189.362 600.674C188.424 597.088 187.486 593.323 186.735 589.737C186.547 588.662 187.298 587.586 187.673 586.51C197.057 560.334 206.816 533.978 216.012 507.623C220.141 495.61 228.961 490.052 241.535 488.977C263.493 487.184 285.639 485.57 307.596 483.419C332.182 481.088 355.641 474.813 375.722 460.111C396.929 444.692 410.441 423.894 421.702 401.304C423.391 398.077 424.892 394.67 425.831 391.264C427.52 384.092 424.704 380.148 417.01 379.968C410.441 379.789 403.873 379.968 397.304 380.686C367.089 383.913 340.627 396.105 316.229 412.958C299.339 424.791 282.073 436.086 264.807 447.381C262.367 448.816 258.426 448.278 255.236 448.816C255.423 445.589 254.485 441.465 256.174 439.134L309.295 343.839C309.295 343.839 323.609 324.612 333.846 322.364C351.818 318.346 369.435 314.114 387.388 310.274C408.815 305.692 428.79 298.805 446.236 285.545C471.069 266.696 485.474 241.246 496.168 213.452C498.551 207.016 502.915 199.692 497.137 193.723C491.545 187.772 483.453 191.13 476.485 192.794C434.282 202.924 399.772 224.075 373.234 257.175C370.632 260.346 365.234 261.442 361.234 263.576L362.506 251.625C362.544 251.269 362.788 250.752 363.012 250.413C381.44 210.216 404.495 172.633 431.151 136.661C461.344 95.8067 474.478 50.4091 461.141 0.272572L458.34 0C450.283 4.80255 441.201 8.60426 433.982 14.3895C395.422 45.2381 371.993 82.7857 375.322 133.029C377.448 166.216 370.501 197.798 352.69 226.882C345.835 238.109 339.876 249.784 333.189 261.207C331.803 263.595 328.813 265.106 326.531 267.047C325.155 264.03 323.759 261.19 322.756 258.209C322.31 257.085 322.854 255.516 323.174 254.285C326.601 238.039 329.674 221.578 333.289 205.35C341.761 166.527 337.271 128.966 319.202 93.1465C314.402 83.3081 306.541 82.7233 299.747 91.6134C282.433 114.258 270.717 139.249 266.055 167.089C258.447 213.745 268.398 256.704 295.499 296.285C304.16 308.842 302.53 310.274 293.713 323.685L247.436 402.98Z" fill="#9B8329"/>
</svg>
