<svg width="24" height="36" viewBox="0 0 24 36" fill="none" xmlns="http://www.w3.org/2000/svg">
<path id="Logo" d="M15.2071 17.2398C15.115 17.2194 15.0127 17.2194 14.9206 17.204C13.9435 17.0301 13.0074 17.1068 12.1172 17.5877C11.7745 17.7719 11.4164 17.9305 11.0583 18.089C10.9509 18.1351 10.8281 18.13 10.7104 18.1504C10.7002 18.1249 10.6848 18.0993 10.6695 18.0737C10.736 17.9765 10.782 17.864 10.8639 17.7872C11.5187 17.1938 12.1786 16.6055 12.8437 16.0172C13.0688 15.8177 13.3348 15.7563 13.6315 15.8535C13.9793 15.9712 14.3323 16.0735 14.6751 16.1962C15.5754 16.5185 16.486 16.6464 17.4273 16.3753C18.077 16.186 18.6551 15.8688 19.1564 15.4084C19.4173 15.1731 19.3968 15.0452 19.0746 14.9173C18.8904 14.8457 18.7062 14.7741 18.5169 14.7076C17.8673 14.4774 17.1971 14.3802 16.5116 14.4978C16.041 14.5797 15.5703 14.6922 15.0997 14.7843C15.0332 14.7945 14.9616 14.7843 14.849 14.7843C14.9104 14.682 14.9462 14.6104 14.9922 14.5541C15.1508 14.3751 15.3248 14.2114 15.4731 14.0272C15.8005 13.6128 16.22 13.4645 16.7316 13.5259C17.4068 13.6077 18.0463 13.4798 18.6755 13.2496C19.9033 12.8045 20.8599 12.0474 21.4278 10.8452C21.5812 10.5178 21.4892 10.3695 21.1413 10.4053C20.2512 10.4974 19.402 10.7122 18.6602 11.2494C18.4351 11.408 18.1998 11.5512 17.9593 11.6893C17.8826 11.7354 17.7803 11.7456 17.6882 11.7763C17.6729 11.7558 17.6524 11.7405 17.637 11.7251C17.6677 11.6279 17.678 11.5154 17.7342 11.4335C18.0463 10.9476 18.3686 10.4718 18.6909 9.99092C18.8495 9.75048 19.0643 9.58678 19.3355 9.4947C19.8112 9.331 20.2767 9.16218 20.7525 9.0036C21.3203 8.81432 21.8421 8.56365 22.277 8.13905C22.896 7.5354 23.2131 6.77316 23.4229 5.95465C23.4689 5.76537 23.5661 5.5454 23.3922 5.39193C23.2234 5.23846 23.0136 5.35612 22.8295 5.42262C21.7142 5.82676 20.8395 6.52249 20.2154 7.5354C20.154 7.63259 20.0107 7.67863 19.9084 7.75025V7.4075C19.9084 7.39727 19.9135 7.38192 19.9186 7.37169C20.3023 6.17974 20.819 5.04918 21.438 3.95442C22.1388 2.71131 22.3639 1.38635 21.8575 0H21.7807C21.5761 0.158586 21.3408 0.291594 21.1618 0.475758C20.2051 1.45797 19.6782 2.58853 19.9135 4.00558C20.067 4.94175 19.9698 5.85745 19.5708 6.73223C19.4173 7.06987 19.2894 7.41774 19.1411 7.76049C19.1104 7.8321 19.0336 7.88326 18.9774 7.94465C18.9313 7.8628 18.8853 7.78606 18.8495 7.70421C18.8341 7.67352 18.8443 7.62748 18.8495 7.59167C18.8955 7.12102 18.9313 6.64527 18.9825 6.17462C19.1001 5.04918 18.8699 3.99535 18.2765 3.02848C18.1179 2.76247 17.9031 2.76758 17.7445 3.03871C17.3403 3.72933 17.0948 4.4711 17.0487 5.27426C16.9771 6.61969 17.371 7.81164 18.2202 8.86036C18.4914 9.19288 18.5016 9.3003 18.2509 9.64306C17.6166 10.523 16.9669 11.3926 16.3223 12.2623C16.266 12.3339 16.1944 12.3902 16.1228 12.4413C16.0819 12.4669 16.0154 12.4618 15.9642 12.472C15.9591 12.426 15.9386 12.3748 15.9489 12.3288C16.0154 12.0577 16.0717 11.7814 16.1689 11.5154C16.4042 10.8708 16.5269 10.2058 16.5269 9.52028C16.5269 8.89617 16.4093 8.2874 16.2302 7.68887C16.1842 7.5354 16.1689 7.341 15.9693 7.30007C15.7749 7.25915 15.6471 7.39727 15.5243 7.52005C15.5038 7.54051 15.4834 7.56609 15.4629 7.59167C14.6137 8.75804 14.2607 10.0523 14.537 11.4745C14.6393 11.9963 14.8439 12.5027 15.0178 13.0092C15.1355 13.357 15.1304 13.5259 14.8797 13.7356C14.3272 14.2011 13.7696 14.6667 13.1966 15.1117C13.0227 15.2498 12.8027 15.3266 12.6032 15.434C12.5776 15.4187 12.5572 15.3982 12.5367 15.3828C12.5776 15.1629 12.6032 14.9327 12.6646 14.7178C12.8232 14.1704 12.992 13.6282 13.1711 13.0859C13.4371 12.2827 13.4934 11.4694 13.2734 10.6457C13.1915 10.3286 13.0585 10.2876 12.7925 10.4667C12.1684 10.881 11.7745 11.4847 11.4369 12.1344C11.0532 12.8659 10.9611 13.6333 11.1913 14.4262C11.2987 14.7945 11.442 15.1526 11.5545 15.521C11.6517 15.8279 11.5647 16.0888 11.3192 16.2986C10.8639 16.6873 10.4137 17.0761 9.9533 17.4547C9.87657 17.5161 9.75891 17.5263 9.66171 17.5621C9.64125 17.4547 9.57986 17.337 9.60544 17.245C9.7231 16.805 9.84076 16.3651 10.0045 15.9405C10.3267 15.1168 10.4035 14.2727 10.2142 13.4133C10.1528 13.1319 10.0607 12.8557 9.94307 12.5948C9.83564 12.3646 9.67706 12.3339 9.50312 12.5232C9.27292 12.7687 9.06318 13.0399 8.88924 13.3263C8.72043 13.6026 8.613 13.9146 8.47487 14.2114C8.19351 14.8201 8.12189 15.4545 8.29582 16.1042C8.47999 16.7743 8.68973 17.4342 8.88924 18.0942C8.95063 18.2988 8.95063 18.4932 8.82786 18.6671C8.29583 19.4293 7.75868 20.1916 7.21642 20.9436C7.12945 21.0664 6.98621 21.1431 6.8532 21.2608C6.82251 21.1636 6.79182 21.1226 6.79182 21.0817C6.79182 20.7697 6.77647 20.4576 6.8174 20.1507C6.93506 19.3168 6.98621 18.4932 6.75601 17.6696C6.62811 17.2143 6.44907 16.7845 6.17794 16.3958C6.02958 16.1809 5.87611 16.1809 5.71752 16.3855C5.65614 16.4674 5.61009 16.5595 5.56405 16.6515C5.02691 17.69 4.82228 18.7848 5.03714 19.946C5.17526 20.7032 5.46686 21.3938 5.89657 22.0281C6.07562 22.2941 6.14213 22.5755 6.00912 22.8824C5.79937 23.3582 5.58963 23.8339 5.36966 24.3046C5.30827 24.4325 5.20084 24.5348 5.11387 24.6473C5.0883 24.6422 5.06783 24.6422 5.04225 24.6371C4.98087 24.4939 4.90413 24.3506 4.86832 24.2023C4.60231 23.0922 4.21352 22.0281 3.63544 21.0459C3.4564 20.7441 3.19038 20.4934 2.95506 20.2223C2.85786 20.1097 2.76578 20.1353 2.71462 20.2734C2.58673 20.606 2.39233 20.9334 2.35141 21.2761C2.27467 21.936 2.27467 22.6062 2.25933 23.2712C2.2491 23.7009 2.37187 24.1 2.62766 24.4427C3.0676 25.0361 3.60987 25.517 4.30048 25.8188C4.62277 25.957 4.70462 26.1207 4.62789 26.4583C4.54092 26.842 4.45907 27.2256 4.3721 27.6042C4.25444 28.126 4.1419 28.6427 4.014 29.1594C3.99354 29.2361 3.90146 29.2975 3.84519 29.3691C3.77868 29.3077 3.68149 29.2617 3.65079 29.1849C3.57406 29.011 3.51778 28.8217 3.47174 28.6376C3.12388 27.1694 2.33606 25.9723 1.19015 25.0054C0.975292 24.8264 0.816706 24.8622 0.765549 25.1333C0.69393 25.4965 0.647889 25.8649 0.591616 26.2332C0.560922 26.402 0.535344 26.5708 0.509766 26.7397V27.1643C0.525113 27.2256 0.550691 27.2819 0.560922 27.3382C0.745087 28.699 1.42036 29.7221 2.63789 30.3667C2.86809 30.4894 3.11876 30.5764 3.3592 30.6787C3.64568 30.7964 3.76334 31.0112 3.74799 31.3182C3.71218 31.9679 3.6866 32.6227 3.66614 33.2775C3.65079 33.8914 3.64056 34.5053 3.63544 35.1191C3.63033 35.554 3.87077 35.82 4.26467 35.9683C4.54092 36.0707 4.75066 35.9172 4.73531 35.6205C4.71997 35.3493 4.6995 35.0731 4.69439 34.7969C4.67904 33.7942 4.65858 32.7966 4.65858 31.7939C4.65858 31.4052 4.78136 31.3233 5.16503 31.3796C5.62544 31.4461 6.09097 31.4972 6.53603 31.3438C6.96063 31.1954 7.375 30.9908 7.77403 30.781C8.75112 30.2695 9.4622 29.5175 9.79983 28.4483C9.83564 28.3409 9.85611 28.2334 9.89192 28.0953C9.68217 28.0646 9.50312 28.0288 9.31896 28.0237C8.6795 28.0083 8.08097 28.2027 7.5387 28.5097C6.79182 28.9292 6.08074 29.41 5.3492 29.8653C5.25711 29.9216 5.15992 29.9676 5.06272 30.0137C4.91948 30.0802 4.84274 30.0188 4.8274 29.8705C4.82228 29.8091 4.81717 29.7528 4.8274 29.6965C4.91948 29.1798 5.01156 28.6632 5.11387 28.1465C5.20084 27.7116 5.3185 27.6247 5.76868 27.6144C6.06027 27.6093 6.3621 27.6196 6.64858 27.5633C8.04516 27.3024 9.12968 26.5606 9.8868 25.3584C10.071 25.0617 10.2091 24.7292 10.3319 24.4018C10.4444 24.1 10.3063 23.926 9.984 23.9363C9.84076 23.9414 9.68729 23.9567 9.54917 23.9977C8.11678 24.4223 6.86855 25.1436 5.9068 26.3151C5.85053 26.3816 5.75333 26.4123 5.67148 26.4634C5.6459 26.3611 5.62033 26.2537 5.59986 26.1514C5.59475 26.1207 5.61521 26.09 5.62544 26.0593C5.88123 25.3124 6.14724 24.5604 6.39791 23.8084C6.51045 23.4656 6.75089 23.307 7.09364 23.2763C7.69218 23.2252 8.29582 23.1791 8.89436 23.1178C9.56451 23.0512 10.204 22.8722 10.7513 22.4527C11.3294 22.0128 11.6978 21.4193 12.0047 20.7748C12.0507 20.6827 12.0917 20.5855 12.1172 20.4883C12.1633 20.2837 12.0865 20.1711 11.8768 20.166C11.6978 20.1609 11.5187 20.166 11.3397 20.1865C10.516 20.2786 9.79472 20.6264 9.12968 21.1073C8.66927 21.4449 8.19863 21.7672 7.72799 22.0895C7.66148 22.1304 7.55405 22.1151 7.46709 22.1304C7.4722 22.0383 7.44662 21.9207 7.49266 21.8542C8.10655 21.0101 8.72554 20.1762 9.34965 19.3475C9.47243 19.1838 9.64636 19.1326 9.86122 19.1787C10.3779 19.2861 10.8895 19.4089 11.4113 19.4652C12.7413 19.6084 13.9026 19.2298 14.8388 18.2579C15.0332 18.0583 15.202 17.8281 15.3555 17.5928C15.4731 17.4189 15.3913 17.2859 15.2071 17.2398Z" fill="black"/>
</svg>
