<svg width="13" height="24" viewBox="0 0 13 24" fill="none" xmlns="http://www.w3.org/2000/svg">
<path d="M6.07294 10.345C5.99464 10.4554 5.83138 10.6333 5.71162 10.7392C5.68399 10.6517 5.65635 10.6149 5.65635 10.5781C5.65635 10.2973 5.64253 10.0166 5.67938 9.7404C5.78532 8.99019 5.83138 8.24917 5.62411 7.50816C5.50895 7.09854 5.34774 6.71192 5.10361 6.36213C4.97003 6.16882 4.83185 6.16882 4.68906 6.35292C4.63379 6.42656 4.59233 6.50941 4.55087 6.59225C4.06723 7.52657 3.88298 8.51152 4.07644 9.5563C4.20081 10.2375 4.46336 10.8588 4.85027 11.4295C5.01149 11.6689 5.07137 11.922 4.95161 12.1982C4.76276 12.6262 4.5739 13.0543 4.37584 13.4777C4.32057 13.5927 4.22384 13.6848 4.14553 13.7861C4.1225 13.7815 4.10408 13.7815 4.08105 13.7769C4.02577 13.648 3.95668 13.5191 3.92444 13.3856C3.68492 12.3869 3.33485 11.4295 2.81436 10.5459C2.65314 10.2743 2.41362 10.0488 2.20174 9.80484C2.11422 9.70358 2.03131 9.7266 1.98525 9.85087C1.8701 10.15 1.69506 10.4446 1.65821 10.753C1.58912 11.3467 1.58912 11.9496 1.5753 12.548C1.56609 12.9346 1.67664 13.2936 1.90695 13.602C2.30307 14.1358 2.79133 14.5685 3.41316 14.84C3.70334 14.9643 3.77704 15.1116 3.70795 15.4154C3.62964 15.7606 3.55595 16.1058 3.47764 16.4463C3.3717 16.9158 3.27037 17.3807 3.15521 17.8455C3.13679 17.9146 3.05388 17.9698 3.00321 18.0342C2.94333 17.979 2.85581 17.9376 2.82817 17.8685C2.75908 17.712 2.70842 17.5418 2.66696 17.3761C2.35374 16.0551 1.64439 14.9781 0.612618 14.1082C0.419159 13.9471 0.276369 13.9794 0.230307 14.2233C0.165821 14.5501 0.124366 14.8815 0.0736983 15.2129C0.0460614 15.3647 0.0230307 15.5166 -6.25605e-08 15.6685L-6.40858e-08 16.0505C0.0138184 16.1058 0.0368491 16.1564 0.0460614 16.207C0.211883 17.4313 0.819894 18.3518 1.91616 18.9317C2.12343 19.0422 2.34914 19.1204 2.56562 19.2125C2.82357 19.3183 2.92951 19.5116 2.91569 19.7878C2.88345 20.3723 2.86042 20.9614 2.84199 21.5506C2.82818 22.1029 2.81896 22.6552 2.81436 23.2075C2.80975 23.5987 3.02624 23.838 3.38091 23.9715C3.62964 24.0636 3.8185 23.9255 3.80468 23.6585C3.79086 23.4146 3.77244 23.1661 3.76783 22.9175C3.75401 22.0154 3.73559 21.1179 3.73559 20.2158C3.73559 19.866 3.84613 19.7924 4.19159 19.843C4.60615 19.9029 5.02531 19.9489 5.42604 19.8108C5.80835 19.6773 6.18145 19.4932 6.54073 19.3045C7.4205 18.8443 8.06076 18.1677 8.36477 17.2058C8.39701 17.1091 8.41543 17.0125 8.44768 16.8882C8.25882 16.8606 8.09761 16.8284 7.93179 16.8238C7.35602 16.8099 6.8171 16.9848 6.32885 17.261C5.65635 17.6384 5.0161 18.071 4.35742 18.4807C4.27451 18.5313 4.18699 18.5727 4.09947 18.6142C3.9705 18.674 3.90141 18.6188 3.88759 18.4853L3.88722 18.4808C3.88274 18.4273 3.87863 18.378 3.88759 18.3288C3.9705 17.8639 4.05341 17.3991 4.14553 16.9342C4.22384 16.543 4.32978 16.4648 4.73512 16.4556C4.99767 16.451 5.26943 16.4602 5.52738 16.4095C6.78486 16.1748 7.76136 15.5074 8.44307 14.4258C8.60889 14.1589 8.73326 13.8597 8.8438 13.5651C8.94514 13.2936 8.82077 13.1371 8.53059 13.1463C8.40161 13.1509 8.26343 13.1647 8.13906 13.2015C6.84934 13.5835 5.72544 14.2325 4.85949 15.2865C4.80882 15.3463 4.7213 15.3739 4.6476 15.42C4.62457 15.3279 4.60154 15.2313 4.58312 15.1392C4.57851 15.1116 4.59694 15.084 4.60615 15.0564C4.83646 14.3844 5.07598 13.7078 5.30168 13.0312C5.40301 12.7229 5.6195 12.5802 5.92811 12.5526C6.46703 12.5065 7.01056 12.4651 7.54948 12.4099C8.15288 12.3501 8.72865 12.189 9.22151 11.8116C9.742 11.4157 10.0736 10.8818 10.35 10.3019C10.3915 10.2191 10.4283 10.1316 10.4514 10.0442C10.4928 9.86007 10.4237 9.75881 10.2349 9.75421C10.0736 9.74961 9.91243 9.75421 9.75122 9.77262C9.00963 9.85547 8.36016 10.1684 7.76136 10.6011C7.34681 10.9049 6.92304 11.1948 6.49928 11.4848C6.4394 11.5216 6.34267 11.5078 6.26436 11.5216C6.26897 11.4388 6.24594 11.3329 6.28739 11.2731L7.59118 8.82672C7.59118 8.82672 7.94248 8.33314 8.19374 8.27545C8.63483 8.1723 9.06721 8.06365 9.50783 7.96508C10.0337 7.84744 10.524 7.67066 10.9522 7.33026C11.5617 6.84639 11.9152 6.19306 12.1777 5.47956C12.2362 5.31434 12.3433 5.12631 12.2015 4.97309C12.0642 4.82032 11.8656 4.90651 11.6946 4.94925C10.6588 5.20929 9.81179 5.75225 9.16045 6.60197C9.0966 6.68337 8.96409 6.71151 8.86592 6.76629L8.89715 6.4595C8.89808 6.45035 8.90406 6.43708 8.90957 6.42839C9.36186 5.39649 9.9277 4.43167 10.5819 3.50823C11.323 2.45946 11.6453 1.29406 11.318 0.00699727L11.2492 4.49155e-08C11.0515 0.123287 10.8286 0.220881 10.6514 0.369395C9.70501 1.16131 9.13 2.1252 9.21169 3.41501C9.26386 4.26694 9.09337 5.0777 8.65623 5.8243C8.488 6.11252 8.34174 6.41222 8.17762 6.70548C8.1436 6.76678 8.0702 6.80558 8.0142 6.85539C7.98041 6.77793 7.94616 6.70505 7.92154 6.62852C7.91059 6.59965 7.92395 6.55937 7.9318 6.52779C8.01592 6.11073 8.09135 5.68815 8.18005 5.27156C8.38799 4.27494 8.2778 3.31069 7.83432 2.39117C7.7165 2.13861 7.52357 2.1236 7.35681 2.35182C6.93188 2.93312 6.64433 3.57467 6.52991 4.28935C6.34317 5.48707 6.58742 6.58987 7.25256 7.60597C7.46514 7.92833 7.42512 7.96508 7.20874 8.30934L6.07294 10.345Z" fill="#9B8329"/>
</svg>
