<svg width="439" height="211" viewBox="0 0 439 211" fill="none" xmlns="http://www.w3.org/2000/svg">
<path d="M183.171 137.802C181.762 136.153 180.622 134.564 179.213 133.214C173.756 127.997 167.13 125.958 159.664 126.018C147.58 126.138 137.146 133.394 133.008 144.758C130.82 150.755 130.46 156.931 131.239 163.198C132.169 170.574 135.137 177.08 140.594 182.238C146.321 187.665 153.217 190.003 161.073 189.763C170.188 189.464 177.444 185.806 182.631 178.22C182.721 178.07 182.841 177.95 182.961 177.83C183.021 177.86 183.111 177.86 183.201 177.89V188.684H193.395V127.068H183.171V137.802ZM180.982 168.655C177.234 176.87 169.858 181.218 160.653 180.738C151.508 180.259 143.922 173.662 141.943 164.277C140.564 157.681 140.924 151.235 144.222 145.208C148.27 137.862 156.306 133.874 164.611 134.983C174.625 136.303 181.672 143.439 182.841 153.543C183.021 154.953 183.081 156.392 183.201 157.801C183.171 161.579 182.571 165.207 180.982 168.655Z" fill="black"/>
<path d="M101.976 110.341H91.9316V188.688H129.441V180.472H101.976V110.341Z" fill="black"/>
<path d="M249.704 128.423C249.704 139.157 249.704 149.921 249.674 160.685C249.674 162.604 249.554 164.523 249.224 166.412C248.145 172.709 244.996 177.476 238.76 179.695C234.682 181.164 230.484 181.164 226.317 180.055C221.849 178.856 218.611 176.097 216.602 171.929C215.253 169.081 214.653 166.053 214.653 162.964C214.623 151.421 214.623 139.877 214.623 128.333V127.044H204.549V128.183C204.549 139.817 204.519 151.421 204.578 163.054C204.608 165.513 204.788 168.001 205.268 170.43C206.587 177.087 209.886 182.484 215.792 186.022C221.519 189.41 227.786 190.309 234.292 189.29C240.409 188.36 245.506 185.572 249.164 180.415C249.254 180.295 249.404 180.205 249.734 179.935V188.69H259.778V127.044H249.704V128.423Z" fill="black"/>
<path d="M86.1427 101.045C85.603 100.925 85.0034 100.925 84.4637 100.835C78.7368 99.8153 73.2498 100.265 68.0327 103.083C66.0238 104.163 63.9249 105.092 61.8261 106.022C61.1964 106.292 60.4768 106.262 59.7872 106.382C59.7272 106.232 59.6373 106.082 59.5473 105.932C59.9371 105.362 60.207 104.703 60.6867 104.253C64.5246 100.775 68.3925 97.3267 72.2903 93.8785C73.6096 92.7092 75.1688 92.3494 76.9078 92.9191C78.9467 93.6087 81.0155 94.2084 83.0244 94.928C88.3015 96.8169 93.6386 97.5665 99.1556 95.9774C102.964 94.868 106.352 93.009 109.29 90.3105C110.819 88.9313 110.699 88.1817 108.81 87.4321C107.731 87.0123 106.651 86.5925 105.542 86.2027C101.734 84.8535 97.8063 84.2838 93.7885 84.9734C91.03 85.4532 88.2716 86.1128 85.5131 86.6525C85.1233 86.7125 84.7035 86.6525 84.0439 86.6525C84.4037 86.0528 84.6136 85.6331 84.8834 85.3032C85.8129 84.2538 86.8324 83.2943 87.7019 82.2149C89.6208 79.7863 92.0795 78.9167 95.0778 79.2765C99.0357 79.7563 102.784 79.0067 106.472 77.6574C113.668 75.0489 119.275 70.6113 122.603 63.5652C123.502 61.6462 122.963 60.7767 120.924 60.9866C115.707 61.5263 110.729 62.7856 106.382 65.9339C105.062 66.8633 103.683 67.7029 102.274 68.5124C101.824 68.7823 101.224 68.8423 100.685 69.0222C100.595 68.9022 100.475 68.8123 100.385 68.7223C100.565 68.1526 100.625 67.493 100.955 67.0133C102.784 64.1648 104.673 61.3764 106.562 58.5579C107.491 57.1487 108.75 56.1892 110.339 55.6495C113.128 54.69 115.856 53.7006 118.645 52.7711C121.973 51.6617 125.031 50.1925 127.58 47.7039C131.208 44.1658 133.067 39.6982 134.296 34.9009C134.566 33.7915 135.136 32.5022 134.116 31.6027C133.127 30.7032 131.898 31.3928 130.818 31.7826C124.282 34.1513 119.155 38.229 115.497 44.1658C115.137 44.7355 114.297 45.0053 113.698 45.4251V43.4162C113.698 43.3562 113.728 43.2663 113.758 43.2063C116.006 36.2201 119.035 29.5938 122.663 23.1773C126.77 15.8913 128.09 8.12555 125.121 0H124.672C123.472 0.92949 122.093 1.70906 121.044 2.78847C115.437 8.54532 112.348 15.1717 113.728 23.4771C114.627 28.9641 114.057 34.3312 111.719 39.4584C110.819 41.4373 110.07 43.4762 109.2 45.4851C109.02 45.9048 108.57 46.2047 108.241 46.5645C107.971 46.0847 107.701 45.635 107.491 45.1553C107.401 44.9753 107.461 44.7055 107.491 44.4956C107.761 41.7371 107.971 38.9487 108.271 36.1902C108.96 29.5938 107.611 23.4172 104.133 17.7503C103.203 16.1911 101.944 16.2211 101.015 17.8102C98.6459 21.858 97.2067 26.2056 96.9368 30.9131C96.517 38.7987 98.8258 45.7849 103.803 51.9315C105.392 53.8805 105.452 54.5101 103.983 56.519C100.265 61.6762 96.4571 66.7734 92.6791 71.8706C92.3493 72.2904 91.9296 72.6202 91.5098 72.92C91.2699 73.0699 90.8801 73.04 90.5803 73.0999C90.5503 72.8301 90.4304 72.5302 90.4903 72.2604C90.8801 70.6713 91.21 69.0522 91.7796 67.493C93.1589 63.7151 93.8785 59.8172 93.8785 55.7994C93.8785 52.1414 93.1889 48.5734 92.1394 45.0653C91.8696 44.1658 91.7796 43.0264 90.6103 42.7865C89.4709 42.5467 88.7213 43.3562 88.0017 44.0758C87.8818 44.1958 87.7618 44.3457 87.6419 44.4956C82.6646 51.3319 80.5958 58.9177 82.2149 67.2531C82.8146 70.3115 84.0139 73.2798 85.0333 76.2482C85.723 78.2871 85.693 79.2765 84.2238 80.5059C80.9856 83.2344 77.7174 85.9629 74.3592 88.5714C73.3398 89.381 72.0505 89.8308 70.8811 90.4604C70.7312 90.3705 70.6113 90.2505 70.4913 90.1606C70.7312 88.8713 70.8811 87.522 71.2409 86.2627C72.1704 83.0545 73.1599 79.8762 74.2093 76.698C75.7684 71.9905 76.0982 67.2232 74.809 62.3958C74.3292 60.5368 73.5496 60.297 71.9905 61.3464C68.3325 63.775 66.0238 67.3131 64.0449 71.121C61.7961 75.4087 61.2564 79.9062 62.6056 84.5537C63.2353 86.7125 64.0748 88.8113 64.7345 90.9701C65.3042 92.7691 64.7944 94.2983 63.3552 95.5276C60.6867 97.8064 58.0481 100.085 55.3496 102.304C54.8999 102.664 54.2103 102.724 53.6406 102.934C53.5206 102.304 53.1608 101.614 53.3107 101.075C54.0004 98.496 54.69 95.9174 55.6495 93.4288C57.5384 88.6014 57.9882 83.6542 56.8788 78.6169C56.519 76.9678 55.9793 75.3487 55.2897 73.8195C54.66 72.4703 53.7305 72.2904 52.7111 73.3998C51.3618 74.839 50.1325 76.4281 49.1131 78.1072C48.1236 79.7263 47.4939 81.5553 46.6844 83.2943C45.0353 86.8624 44.6155 90.5803 45.635 94.3883C46.7144 98.3161 47.9437 102.184 49.1131 106.052C49.4729 107.251 49.4729 108.391 48.7532 109.41C45.635 113.878 42.4867 118.345 39.3084 122.753C38.7987 123.472 37.9592 123.922 37.1796 124.612C36.9997 124.042 36.8198 123.802 36.8198 123.562C36.8198 121.733 36.7298 119.904 36.9697 118.105C37.6593 113.218 37.9592 108.391 36.6099 103.563C35.8603 100.895 34.8109 98.3761 33.2218 96.0973C32.3522 94.838 31.4527 94.838 30.5233 96.0374C30.1634 96.5171 29.8936 97.0568 29.6237 97.5965C26.4755 103.683 25.2761 110.1 26.5354 116.906C27.345 121.343 29.0541 125.391 31.5727 129.109C32.6221 130.668 33.0119 132.317 32.2323 134.116C31.003 136.905 29.7737 139.693 28.4844 142.452C28.1246 143.202 27.4949 143.801 26.9852 144.461C26.8353 144.431 26.7153 144.431 26.5654 144.401C26.2056 143.561 25.7559 142.722 25.546 141.852C23.9868 135.346 21.7081 129.109 18.3199 123.352C17.2705 121.583 15.7114 120.114 14.3321 118.525C13.7624 117.865 13.2227 118.015 12.9229 118.825C12.1733 120.774 11.0339 122.693 10.7941 124.702C10.3443 128.57 10.3443 132.497 10.2544 136.395C10.1944 138.914 10.914 141.253 12.4132 143.261C14.9918 146.74 18.17 149.558 22.2178 151.327C24.1068 152.137 24.5865 153.096 24.1368 155.075C23.627 157.324 23.1473 159.573 22.6376 161.791C21.948 164.85 21.2883 167.878 20.5387 170.906C20.4188 171.356 19.8791 171.716 19.5493 172.136C19.1595 171.776 18.5898 171.506 18.4099 171.056C17.9601 170.037 17.6303 168.927 17.3605 167.848C15.3216 159.243 10.7041 152.227 3.98781 146.56C2.7285 145.51 1.79901 145.72 1.49918 147.309C1.07941 149.438 0.809556 151.597 0.479737 153.756C0.299835 154.745 0.149918 155.735 0 156.724V159.213C0.0899506 159.573 0.239868 159.902 0.299835 160.232C1.37924 168.208 5.33707 174.205 12.4732 177.982C13.8224 178.702 15.2916 179.212 16.7008 179.811C18.3799 180.501 19.0695 181.76 18.9796 183.559C18.7697 187.367 18.6198 191.205 18.4998 195.043C18.4099 198.641 18.3499 202.239 18.3199 205.837C18.29 208.386 19.6992 209.945 22.0079 210.814C23.627 211.414 24.8564 210.515 24.7664 208.776C24.6765 207.186 24.5565 205.567 24.5265 203.948C24.4366 198.071 24.3167 192.225 24.3167 186.348C24.3167 184.069 25.0363 183.589 27.285 183.919C29.9835 184.309 32.7121 184.609 35.3206 183.709C37.8093 182.84 40.2379 181.64 42.5766 180.411C48.3035 177.413 52.4712 173.005 54.4501 166.739C54.66 166.109 54.7799 165.479 54.9898 164.67C53.7605 164.49 52.7111 164.28 51.6317 164.25C47.8837 164.16 44.3756 165.299 41.1974 167.098C36.8198 169.557 32.6521 172.376 28.3644 175.044C27.8247 175.374 27.255 175.644 26.6854 175.914C25.8458 176.303 25.3961 175.944 25.3061 175.074C25.2761 174.714 25.2461 174.384 25.3061 174.055C25.8458 171.026 26.3855 167.998 26.9852 164.97C27.4949 162.421 28.1845 161.911 30.8231 161.851C32.5321 161.821 34.3012 161.881 35.9803 161.551C44.1658 160.022 50.5223 155.675 54.9598 148.629C56.0393 146.889 56.8488 144.941 57.5684 143.022C58.228 141.253 57.4185 140.233 55.5295 140.293C54.69 140.323 53.7905 140.413 52.9809 140.653C44.5855 143.142 37.2695 147.369 31.6326 154.235C31.3028 154.625 30.7331 154.805 30.2534 155.105C30.1035 154.505 29.9536 153.876 29.8336 153.276C29.8036 153.096 29.9236 152.916 29.9835 152.736C31.4827 148.359 33.0419 143.951 34.5111 139.544C35.1707 137.535 36.5799 136.605 38.5888 136.425C42.0969 136.125 45.635 135.856 49.143 135.496C53.0709 135.106 56.8188 134.057 60.0271 131.598C63.4152 129.019 65.574 125.541 67.373 121.763C67.6429 121.224 67.8827 120.654 68.0327 120.084C68.3025 118.885 67.8528 118.225 66.6234 118.195C65.574 118.165 64.5246 118.195 63.4752 118.315C58.6478 118.855 54.4201 120.894 50.5223 123.712C47.8238 125.691 45.0653 127.58 42.3068 129.469C41.917 129.709 41.2873 129.619 40.7776 129.709C40.8076 129.169 40.6577 128.48 40.9275 128.09C44.5256 123.143 48.1536 118.255 51.8116 113.398C52.5312 112.438 53.5506 112.139 54.8099 112.408C57.8383 113.038 60.8366 113.758 63.8949 114.087C71.6907 114.927 78.4969 112.708 83.9839 107.011C85.1233 105.842 86.1128 104.493 87.0123 103.113C87.7019 102.094 87.2221 101.314 86.1427 101.045Z" fill="black"/>
<path d="M436.802 165.868C435.033 161.7 431.585 159.062 427.447 157.533C423.219 155.973 418.842 154.834 414.584 153.395C411.706 152.405 408.827 151.386 406.099 150.097C404.21 149.197 402.741 147.698 402.051 145.599C400.822 141.731 402.681 137.893 406.698 136.004C409.307 134.805 412.036 134.505 414.854 134.625C422.56 134.985 426.757 139.512 427.237 144.7C427.267 144.939 427.687 145.359 427.927 145.359C431.075 145.389 434.253 145.389 437.522 145.389C437.162 139.303 434.973 134.355 430.176 130.727C426.098 127.669 421.42 126.38 416.383 126.11C410.956 125.84 405.739 126.5 400.852 129.048C393.236 133.006 389.848 140.532 392.216 148.388C393.716 153.305 397.344 156.393 401.901 158.282C405.709 159.841 409.757 160.861 413.655 162.18C417.283 163.409 420.911 164.609 424.449 166.018C426.308 166.738 427.447 168.327 427.897 170.336C428.736 174.233 426.727 177.981 422.68 179.78C418.722 181.549 414.554 181.639 410.416 180.62C405.499 179.421 401.961 176.632 400.882 171.385C400.822 171.115 400.252 170.785 399.922 170.785C396.984 170.725 394.045 170.755 391.107 170.755C390.867 170.755 390.627 170.845 390.357 170.905V171.745C390.357 171.955 390.387 172.195 390.417 172.404C391.167 177.052 393.356 180.89 396.984 183.888C401.361 187.516 406.549 189.195 412.125 189.645C418.092 190.095 423.939 189.555 429.276 186.497C437.761 181.669 439.77 172.854 436.802 165.868Z" fill="black"/>
<path d="M281.695 136.571V127.066H271.65V188.682H281.695V187.213C281.695 176.689 281.665 166.164 281.725 155.64C281.725 153.241 281.935 150.813 282.414 148.474C283.524 143.017 286.582 138.999 292.099 137.38C294.168 136.78 296.387 136.66 298.546 136.421C299.535 136.301 300.555 136.391 301.544 136.391C301.544 132.793 301.544 129.345 301.514 125.836C292.969 125.926 286.162 129.015 281.695 136.571Z" fill="black"/>
<path d="M346.823 128.239C340.736 125.69 334.35 125.42 327.963 126.59C318.518 128.299 311.382 133.336 307.305 142.151C303.107 151.266 302.897 160.741 306.045 170.186C308.744 178.371 314.261 184.248 322.326 187.546C328.443 190.035 334.859 190.395 341.276 189.195C351.77 187.216 358.936 181.19 362.564 171.055C362.714 170.696 362.774 170.306 362.894 169.826C359.356 169.826 355.968 169.796 352.58 169.856C352.25 169.856 351.77 170.336 351.62 170.696C350.571 173.124 349.102 175.193 347.093 176.932C343.375 180.14 338.907 181.16 334.11 181.13C324.665 181.07 316.929 174.863 314.98 165.628C314.711 164.369 314.621 163.08 314.411 161.7H363.884C364.273 158.012 364.423 154.444 363.944 150.906C362.444 140.202 356.897 132.437 346.823 128.239ZM314.651 153.365C314.8 150.277 315.52 147.428 316.929 144.79C320.407 138.283 325.954 135.015 333.24 134.625C337.378 134.415 341.336 135.225 344.934 137.324C350.961 140.862 353.599 146.349 353.689 153.365H314.651Z" fill="black"/>
<path d="M371.883 188.684H381.897V105.36H371.883V188.684Z" fill="black"/>
</svg>
