<svg width="597" height="800" viewBox="0 0 597 800" fill="none" xmlns="http://www.w3.org/2000/svg">
<path d="M298.325 0C133.826 0 0 133.88 0 298.443C0 543.631 268.63 783.036 280.07 793.11C285.285 797.702 291.803 800.003 298.325 800.003C304.846 800.003 311.364 797.705 316.582 793.11C328.016 783.038 596.649 543.634 596.649 298.443C596.649 133.88 462.823 0 298.325 0ZM298.325 734.516C238.933 676.964 55.2458 483.933 55.2458 298.443C55.2458 164.345 164.291 55.2458 298.325 55.2458C432.358 55.2458 541.403 164.345 541.403 298.443C541.403 483.93 357.716 676.962 298.325 734.516Z" fill="#EB5C5F"/>
</svg>
