<svg width="14" height="14" viewBox="0 0 14 14" fill="none" xmlns="http://www.w3.org/2000/svg">
<path d="M11.9291 11.9289H9.85464V8.68029C9.85464 7.90562 9.84081 6.90838 8.77572 6.90838C7.69528 6.90838 7.52998 7.75242 7.52998 8.6239V11.9287H5.45555V5.24819H7.447V6.16116H7.47487C7.67417 5.8204 7.96216 5.54007 8.30817 5.35004C8.65419 5.16 9.04526 5.06738 9.43975 5.08202C11.5423 5.08202 11.9299 6.46497 11.9299 8.26411L11.9291 11.9289ZM3.11489 4.33501C2.8768 4.33505 2.64404 4.26449 2.44605 4.13225C2.24806 4 2.09373 3.81202 2.00258 3.59207C1.91142 3.37212 1.88754 3.13007 1.93395 2.89655C1.98035 2.66302 2.09497 2.4485 2.26329 2.28011C2.43162 2.11172 2.6461 1.99703 2.87961 1.95054C3.11312 1.90405 3.35517 1.92784 3.57516 2.01892C3.79514 2.10999 3.98318 2.26426 4.11549 2.4622C4.24781 2.66014 4.31845 2.89288 4.31849 3.13097C4.31852 3.28906 4.28742 3.4456 4.22694 3.59167C4.16647 3.73773 4.07782 3.87046 3.96606 3.98226C3.85429 4.09407 3.7216 4.18276 3.57556 4.24329C3.42952 4.30381 3.27298 4.33498 3.11489 4.33501ZM4.15211 11.9289H2.07551V5.24819H4.15211V11.9289ZM12.9633 0.000953493H1.03311C0.762332 -0.00210227 0.501411 0.10247 0.307693 0.291691C0.113974 0.480912 0.00330473 0.739301 0 1.01008V12.9897C0.00319162 13.2606 0.113794 13.5192 0.307506 13.7086C0.501218 13.898 0.762197 14.0028 1.03311 13.9999H12.9633C13.2347 14.0033 13.4964 13.8988 13.6909 13.7094C13.8854 13.52 13.9967 13.2612 14.0005 12.9897V1.00921C13.9966 0.737899 13.8852 0.479217 13.6907 0.290001C13.4962 0.100784 13.2346 -0.00348917 12.9633 8.91459e-05" fill="white"/>
</svg>
