<svg width="16" height="16" viewBox="0 0 16 16" fill="none" xmlns="http://www.w3.org/2000/svg">
<path d="M11.85 4.15H11.857M4.5 1H11.5C13.433 1 15 2.567 15 4.5V11.5C15 13.433 13.433 15 11.5 15H4.5C2.567 15 1 13.433 1 11.5V4.5C1 2.567 2.567 1 4.5 1ZM10.8 7.559C10.8864 8.14157 10.7869 8.73655 10.5156 9.25931C10.2444 9.78207 9.8152 10.206 9.28914 10.4708C8.76307 10.7356 8.16691 10.8277 7.58545 10.7342C7.00399 10.6406 6.46683 10.3661 6.05039 9.94961C5.63394 9.53317 5.35941 8.99601 5.26585 8.41455C5.17228 7.83309 5.26445 7.23693 5.52923 6.71086C5.79401 6.1848 6.21793 5.75562 6.74069 5.48437C7.26345 5.21312 7.85843 5.11361 8.441 5.2C9.03525 5.28812 9.5854 5.56502 10.0102 5.98981C10.435 6.4146 10.7119 6.96475 10.8 7.559Z" stroke="black" stroke-linecap="round" stroke-linejoin="round"/>
</svg>
