<svg width="14" height="14" viewBox="0 0 14 14" fill="none" xmlns="http://www.w3.org/2000/svg">
<g clip-path="url(#clip0_3622_17274)">
<path d="M12.8319 9.87038V11.6204C12.8325 11.7828 12.7993 11.9436 12.7342 12.0925C12.6691 12.2414 12.5736 12.375 12.4539 12.4848C12.3342 12.5946 12.1929 12.6782 12.039 12.7303C11.8851 12.7823 11.722 12.8017 11.5602 12.787C9.76519 12.592 8.04095 11.9786 6.52604 10.9962C5.1166 10.1006 3.92165 8.90565 3.02604 7.49622C2.04019 5.97442 1.42668 4.2418 1.2352 2.43872C1.22063 2.2774 1.2398 2.11483 1.2915 1.96133C1.34319 1.80783 1.42629 1.66678 1.53548 1.54716C1.64468 1.42754 1.77759 1.33196 1.92575 1.26652C2.07391 1.20108 2.23407 1.1672 2.39604 1.16705H4.14604C4.42913 1.16426 4.70358 1.26451 4.91823 1.44911C5.13288 1.63371 5.27308 1.89006 5.3127 2.17038C5.38657 2.73042 5.52355 3.28031 5.72104 3.80955C5.79952 4.01834 5.81651 4.24525 5.76998 4.4634C5.72346 4.68154 5.61537 4.88178 5.45854 5.04038L4.7177 5.78122C5.54811 7.24162 6.7573 8.45081 8.2177 9.28122L8.95854 8.54038C9.11714 8.38355 9.31738 8.27546 9.53552 8.22894C9.75367 8.18241 9.98058 8.1994 10.1894 8.27788C10.7186 8.47537 11.2685 8.61235 11.8285 8.68622C12.1119 8.72619 12.3707 8.86892 12.5557 9.08725C12.7407 9.30559 12.839 9.5843 12.8319 9.87038Z" stroke="black" stroke-linecap="round" stroke-linejoin="round"/>
</g>
<defs>
<clipPath id="clip0_3622_17274">
<rect width="14" height="14" fill="white"/>
</clipPath>
</defs>
</svg>
